<svg
    xmlns="http://www.w3.org/2000/svg"
    viewBox="0 0 56 56"
    id="vector">
    <path
        id="path"
        d="M 28 2 C 34.889 2.013 41.497 4.764 46.361 9.642 C 51.225 14.52 53.957 21.136 53.95 28.025 C 53.943 34.914 51.199 41.525 46.326 46.394 C 41.453 51.262 34.839 54 27.95 54 C 21.061 54 14.447 51.262 9.574 46.394 C 4.701 41.525 1.957 34.914 1.95 28.025 C 1.943 21.136 4.675 14.52 9.539 9.642 C 14.403 4.764 21.011 2.013 27.9 2 Z"
        fill="#ffe56633"/>
    <path
        id="path_1"
        d="M 28 10 C 32.768 10.013 37.34 11.92 40.704 15.299 C 44.069 18.677 45.957 23.257 45.95 28.025 C 45.943 32.793 44.043 37.368 40.669 40.737 C 37.295 44.106 32.718 46 27.95 46 C 23.182 46 18.605 44.106 15.231 40.737 C 11.857 37.368 9.957 32.793 9.95 28.025 C 9.943 23.257 11.831 18.677 15.196 15.299 C 18.56 11.92 23.132 10.013 27.9 10 Z"
        fill="#f8d76d"/>
    <path
        id="path_2"
        d="M 22 14 C 23.216 13.298 24.596 12.928 26 12.928 C 27.404 12.928 28.784 13.298 30 14 C 28.784 13.298 27.404 12.928 26 12.928 C 24.596 12.928 23.216 13.298 22 14 Z"
        fill="#f0e48b"/>
</svg>
